<svg version="1.1" xmlns="http://www.w3.org/2000/svg" width="600" height="600" viewBox="0 0 600 600" preserveAspectRatio="xMidYMid meet">
  <defs>
    <filter id="smooth" x="-2%" y="-2%" width="104%" height="104%" color-interpolation-filters="sRGB">
      <feGaussianBlur in="SourceGraphic" stdDeviation="1.0" result="blur"/>
      <feComponentTransfer in="blur" result="sharp">
        <feFuncA type="linear" slope="14" intercept="-5"/>
      </feComponentTransfer>
      <feComposite in="sharp" in2="SourceGraphic" operator="in"/>
    </filter>
  </defs>

  <g transform="translate(0,600) scale(0.1,-0.1)"
     fill="#1A89FD"
     stroke="#1A89FD"
     stroke-width="0.5"
     stroke-linejoin="round"
     stroke-linecap="round"
     shape-rendering="geometricPrecision"
     filter="url(#smooth)">

    <path d="M2745 5189 c-450 -55 -842 -219 -1196 -500 -112 -89 -304 -288 -395 -410
             -233 -314 -379 -668 -440 -1064 -23 -155 -24 -471 0 -630 38 -264 101 -467
             216 -701 44 -89 108 -204 142 -256 332 -496 834 -846 1402 -978 191 -44
             295 -55 521 -55 231 0 318 9 508 51 118 26 357 102 357 113 0 4 -73 189
             -163 412 -90 222 -166 412 -170 421 -6 16 -9 16 -44 1 -181 -75 -491 -105
             -714 -67 -506 86 -929 449 -1088 934 -264 809 245 1657 1086 1806 109 20
             318 22 438 4 567 -81 1036 -523 1154 -1089 l18 -86 34 2 c19 1 180 23 359
             48 179 26 367 51 418 58 l94 11 -7 55 c-4 31 -24 124 -45 206 -132 520
             -455 990 -895 1301 -401 284 -855 426 -1350 423 -93 -1 -201 -5 -240 -10z"/>

    <path d="M4567 2668 c-10 -7 -38 -67 -62 -133 -106 -281 -117 -305 -138 -317
             -12 -6 -110 -44 -217 -84 -161 -59 -198 -76 -210 -98 -13 -23 -13 -29 0
             -52 12 -22 51 -40 224 -104 116 -43 216 -86 222 -95 7 -9 45 -105 85 -213
             40 -109 79 -205 87 -214 8 -10 27 -18 42 -18 15 0 34 8 42 18 9 9 46 98
             82 197 89 241 86 235 106 245 9 5 104 41 211 81 107 39 202 78 212 87 9 8
             17 27 17 42 0 15 -8 34 -17 42 -10 9 -107 48 -216 88 -109 40 -204 78
             -213 84 -8 7 -49 104 -90 216 -42 113 -82 213 -91 222 -19 21 -52 23 -76 6z"/>
  </g>
</svg>
